<svg width="291" height="209" viewBox="0 0 291 209" fill="none" xmlns="http://www.w3.org/2000/svg">
<path d="M67.5594 78.4349C67.7345 74.9027 70.2206 67.453 78.7644 65.9116" stroke="black" stroke-width="4.94338" stroke-linecap="round"/>
<path d="M191.803 64.3054C209.929 54.8714 236.293 67.3946 221.793 96.3958" stroke="black" stroke-width="4.94338" stroke-linecap="round"/>
<path d="M194.443 62.1144C212.569 52.6804 238.934 65.2036 224.434 94.2047" stroke="black" stroke-width="4.94338" stroke-linecap="round"/>
<path d="M208.417 93.6849C204.883 93.8192 197.245 91.9938 194.962 83.6175" stroke="black" stroke-width="4.94338" stroke-linecap="round"/>
<circle cx="82.06" cy="80.4122" r="22.5747" stroke="black" stroke-width="4.94338"/>
<line x1="105.456" y1="74.7351" x2="141.049" y2="64.8484" stroke="black" stroke-width="4.94338"/>
<line x1="148.606" y1="63.5227" x2="185.846" y2="73.4095" stroke="black" stroke-width="4.94338"/>
<line x1="145.971" y1="72.0276" x2="185.518" y2="76.9709" stroke="black" stroke-width="4.94338"/>
<line x1="147.019" y1="71.9813" x2="105.165" y2="78.2429" stroke="black" stroke-width="4.94338"/>
<circle cx="208.281" cy="78.4349" r="22.5747" stroke="black" stroke-width="4.94338"/>
<path fill-rule="evenodd" clip-rule="evenodd" d="M150.608 21.124C150.172 21.1026 149.732 21.0917 149.29 21.0917C135.457 21.0917 124.243 31.7152 124.243 44.8199C124.243 57.9246 135.457 68.5481 149.29 68.5481C149.732 68.5481 150.172 68.5372 150.608 68.5158V63.5655C150.173 63.5915 149.733 63.6047 149.29 63.6047C137.932 63.6047 129.187 54.946 129.187 44.8199C129.187 34.6938 137.932 26.0351 149.29 26.0351C149.733 26.0351 150.173 26.0483 150.608 26.0743V21.124Z" fill="black"/>
<line x1="148.136" y1="65.9116" x2="148.136" y2="24.0577" stroke="black" stroke-width="4.94338"/>
<path d="M122.925 113.533H170.052C171.417 113.533 172.524 114.639 172.524 116.005V171.206H120.454V116.005C120.454 114.639 121.56 113.533 122.925 113.533Z" stroke="black" stroke-width="4.94338"/>
<path d="M117.982 170.546H174.996C175.944 170.546 176.766 171.081 177.18 171.865H115.796C116.211 171.081 117.034 170.546 117.982 170.546Z" fill="#D9D9D9" stroke="black" stroke-width="3.1308"/>
<rect x="135.284" y="76.9518" width="22.41" height="36.581" stroke="black" stroke-width="4.94338"/>
</svg>
